<svg width="35" height="35" viewBox="0 0 35 35" fill="none" xmlns="http://www.w3.org/2000/svg">
<mask id="mask0_236_12"  maskUnits="userSpaceOnUse" x="0" y="0" width="35" height="35">
<rect width="34.4542" height="34.4542" fill="#D9D9D9"/>
</mask>
<g mask="url(#mask0_236_12)">
<path d="M17.227 23.6872C19.0215 23.6872 20.5468 23.0591 21.8029 21.803C23.0591 20.5469 23.6872 19.0216 23.6872 17.2271C23.6872 15.4326 23.0591 13.9073 21.8029 12.6511C20.5468 11.395 19.0215 10.7669 17.227 10.7669C15.4325 10.7669 13.9072 11.395 12.6511 12.6511C11.3949 13.9073 10.7668 15.4326 10.7668 17.2271C10.7668 19.0216 11.3949 20.5469 12.6511 21.803C13.9072 23.0591 15.4325 23.6872 17.227 23.6872ZM17.227 18.6627C16.8203 18.6627 16.4793 18.5251 16.2041 18.2499C15.929 17.9748 15.7914 17.6338 15.7914 17.2271C15.7914 16.8203 15.929 16.4794 16.2041 16.2042C16.4793 15.929 16.8203 15.7915 17.227 15.7915C17.6338 15.7915 17.9747 15.929 18.2499 16.2042C18.525 16.4794 18.6626 16.8203 18.6626 17.2271C18.6626 17.6338 18.525 17.9748 18.2499 18.2499C17.9747 18.5251 17.6338 18.6627 17.227 18.6627ZM17.227 31.583C15.2411 31.583 13.3748 31.2061 11.6282 30.4524C9.88156 29.6988 8.36223 28.6759 7.0702 27.3839C5.77816 26.0918 4.75531 24.5725 4.00162 22.8259C3.24794 21.0792 2.87109 19.213 2.87109 17.2271C2.87109 15.2412 3.24794 13.3749 4.00162 11.6283C4.75531 9.88162 5.77816 8.36229 7.0702 7.07026C8.36223 5.77823 9.88156 4.75537 11.6282 4.00168C13.3748 3.248 15.2411 2.87115 17.227 2.87115C19.2129 2.87115 21.0792 3.248 22.8258 4.00168C24.5724 4.75537 26.0918 5.77823 27.3838 7.07026C28.6758 8.36229 29.6987 9.88162 30.4524 11.6283C31.2061 13.3749 31.5829 15.2412 31.5829 17.2271C31.5829 19.213 31.2061 21.0792 30.4524 22.8259C29.6987 24.5725 28.6758 26.0918 27.3838 27.3839C26.0918 28.6759 24.5724 29.6988 22.8258 30.4524C21.0792 31.2061 19.2129 31.583 17.227 31.583ZM17.227 28.7118C20.4332 28.7118 23.1488 27.5992 25.374 25.374C27.5991 23.1489 28.7117 20.4332 28.7117 17.2271C28.7117 14.0209 27.5991 11.3053 25.374 9.08009C23.1488 6.85492 20.4332 5.74234 17.227 5.74234C14.0208 5.74234 11.3052 6.85492 9.08002 9.08009C6.85486 11.3053 5.74228 14.0209 5.74228 17.2271C5.74228 20.4332 6.85486 23.1489 9.08002 25.374C11.3052 27.5992 14.0208 28.7118 17.227 28.7118Z" fill="white"/>
</g>
</svg>
