<svg width="18" height="18" viewBox="0 0 18 18" fill="none" xmlns="http://www.w3.org/2000/svg">
<g clip-path="url(#clip0_221_33)">
<path d="M14.5722 10.6L11.2909 9.19374C11.1507 9.134 10.995 9.12141 10.847 9.15787C10.6991 9.19433 10.567 9.27786 10.4706 9.39589L9.01744 11.1713C6.73686 10.096 4.90151 8.26069 3.82624 5.98011L5.60166 4.52696C5.71993 4.43077 5.80363 4.29867 5.84011 4.15065C5.87659 4.00263 5.86384 3.84676 5.80381 3.70663L4.39754 0.425328C4.33165 0.274273 4.21512 0.150942 4.06804 0.0766005C3.92097 0.00225935 3.75256 -0.0184321 3.59186 0.018094L0.544931 0.721231C0.389998 0.757009 0.251766 0.844245 0.152796 0.968701C0.0538267 1.09316 -3.56904e-05 1.24749 1.77431e-08 1.4065C1.77431e-08 8.92128 6.09093 15.0005 13.594 15.0005C13.753 15.0006 13.9074 14.9468 14.032 14.8478C14.1565 14.7488 14.2438 14.6105 14.2795 14.4556L14.9827 11.4086C15.019 11.2471 14.9978 11.0781 14.9229 10.9305C14.848 10.7829 14.724 10.666 14.5722 10.6Z" fill="white"/>
</g>
<defs>
<clipPath id="clip0_221_33">
<rect width="18" height="18" fill="white"/>
</clipPath>
</defs>
</svg>
